STARTFONT 2.1
COMMENT $Id$
COMMENT 
COMMENT Copyright (C) Centre d'Etudes de la Navigation Aťrienne
COMMENT 
COMMENT This software is free software; you can redistribute it and/or
COMMENT modify it under the terms of the GNU Lesser General Public License
COMMENT as published by the Free Software Foundation: either version 2
COMMENT of the License, or (at your option) any later version.
COMMENT 
COMMENT This software is distributed in the hope that it will be useful,
COMMENT but WITHOUT ANY WARRANTY; without even the implied warranty of
COMMENT MERCHANTABILITY or FITNESS FOR A PARTICULAR PURPOSE.  See the
COMMENT GNU Lesser General Public License for more details.
COMMENT 
COMMENT You should have received a copy of the GNU Lesser General Public License
COMMENT along with this software; if not, write to the Free Software
COMMENT Foundation, Inc., 59 Temple Place - Suite 330, Boston, MA  02111-1307, USA.
COMMENT Please refer to http://www.gnu.org/copyleft/gpl.html
COMMENT
COMMENT to contact us:
COMMENT    email to:  pii-contact@cena.dgac.fr
COMMENT or write to: CENA, 7 avenue Edouard Belin, 31400 Toulouse, France 
COMMENT 
FONT -cena-orly label-bold-r-normal-sans-16-160-75-75-p-91-fontspecific-1
SIZE 16 75 75
FONTBOUNDINGBOX 16 19 0 -4
STARTPROPERTIES 14
FOUNDRY "CENA"
FAMILY_NAME "Orly Label"
COPYRIGHT "Copyright 1999 CENA/J.L.Vinot"
FONT_ASCENT 15
FONT_DESCENT 3
PIXEL_SIZE 16
POINT_SIZE 160
RESOLUTION_X 75
RESOLUTION_Y 75
SPACING "p"
WEIGHT_NAME "bold"
SLANT "r"
SETWIDTH_NAME "normal"
_XMBDFED_INFO "Edited with xmbdfed 3.3."
ENDPROPERTIES
CHARS 138
STARTCHAR CENA14
ENCODING 20
SWIDTH 600 0
DWIDTH 10 0
BBX 8 2 1 5
BITMAP
FF
FF
ENDCHAR
STARTCHAR CENA15
ENCODING 21
SWIDTH 600 0
DWIDTH 10 0
BBX 8 11 1 0
BITMAP
E0
70
38
18
0C
3F
1F
0F
07
03
01
ENDCHAR
STARTCHAR CENA16
ENCODING 22
SWIDTH 600 0
DWIDTH 10 0
BBX 8 11 1 0
BITMAP
01
03
07
0F
1F
3F
0C
18
38
70
E0
ENDCHAR
STARTCHAR GCID20
ENCODING 32
SWIDTH 660 0
DWIDTH 11 0
BBX 0 0 0 0
BITMAP
ENDCHAR
STARTCHAR CENA21
ENCODING 33
SWIDTH 300 0
DWIDTH 5 0
BBX 2 11 2 0
BITMAP
C0
C0
C0
C0
C0
C0
C0
C0
00
C0
C0
ENDCHAR
STARTCHAR CENA25
ENCODING 37
SWIDTH 780 0
DWIDTH 13 0
BBX 12 12 0 0
BITMAP
70C0
F880
D980
D900
FB00
7200
04E0
0DF0
09B0
19B0
11F0
30E0
ENDCHAR
STARTCHAR CENA26
ENCODING 38
SWIDTH 660 0
DWIDTH 11 0
BBX 10 11 1 0
BITMAP
3C00
7E00
6600
7E00
3C00
3800
7CC0
EFC0
C700
FF80
7DC0
ENDCHAR
STARTCHAR CENA27
ENCODING 39
SWIDTH 180 0
DWIDTH 3 0
BBX 1 4 1 7
BITMAP
80
80
80
80
ENDCHAR
STARTCHAR CENA28
ENCODING 40
SWIDTH 300 0
DWIDTH 5 0
BBX 3 15 1 -4
BITMAP
20
60
C0
C0
C0
C0
C0
C0
C0
C0
C0
C0
C0
60
20
ENDCHAR
STARTCHAR CENA29
ENCODING 41
SWIDTH 300 0
DWIDTH 5 0
BBX 3 15 0 -4
BITMAP
80
C0
60
60
60
60
60
60
60
60
60
60
60
C0
80
ENDCHAR
STARTCHAR CENA2A
ENCODING 42
SWIDTH 420 0
DWIDTH 7 0
BBX 7 7 1 4
BITMAP
10
D6
7C
38
7C
D6
10
ENDCHAR
STARTCHAR CENA2B
ENCODING 43
SWIDTH 780 0
DWIDTH 13 0
BBX 8 8 2 0
BITMAP
18
18
18
FF
FF
18
18
18
ENDCHAR
STARTCHAR CENA2C
ENCODING 44
SWIDTH 420 0
DWIDTH 7 0
BBX 4 6 1 -3
BITMAP
20
70
70
60
C0
80
ENDCHAR
STARTCHAR CENA2D
ENCODING 45
SWIDTH 420 0
DWIDTH 7 0
BBX 5 2 1 3
BITMAP
F8
F8
ENDCHAR
STARTCHAR CENA2E
ENCODING 46
SWIDTH 240 0
DWIDTH 4 0
BBX 3 4 1 0
BITMAP
40
E0
E0
40
ENDCHAR
STARTCHAR CENA2F
ENCODING 47
SWIDTH 480 0
DWIDTH 8 0
BBX 8 13 0 -2
BITMAP
03
03
06
06
0C
0C
18
18
30
30
60
60
C0
ENDCHAR
STARTCHAR CENA30
ENCODING 48
SWIDTH 660 0
DWIDTH 11 0
BBX 9 11 1 0
BITMAP
1C00
7F00
6300
E380
C980
DD80
C980
E380
6300
7F00
1C00
ENDCHAR
STARTCHAR CENA31
ENCODING 49
SWIDTH 600 0
DWIDTH 10 0
BBX 6 11 1 0
BITMAP
0C
1C
3C
7C
EC
CC
0C
0C
0C
0C
0C
ENDCHAR
STARTCHAR CENA32
ENCODING 50
SWIDTH 660 0
DWIDTH 11 0
BBX 9 11 1 0
BITMAP
3C00
7E00
E700
C300
0700
0E00
1C00
3800
7000
FF80
FF80
ENDCHAR
STARTCHAR CENA33
ENCODING 51
SWIDTH 660 0
DWIDTH 11 0
BBX 9 11 1 0
BITMAP
3E00
7F00
6300
0700
1E00
0F00
0380
C180
E380
7F00
3E00
ENDCHAR
STARTCHAR CENA34
ENCODING 52
SWIDTH 660 0
DWIDTH 11 0
BBX 9 11 1 0
BITMAP
0300
0700
0F00
1F00
3B00
7300
E300
FF80
FF80
0300
0300
ENDCHAR
STARTCHAR CENA35
ENCODING 53
SWIDTH 660 0
DWIDTH 11 0
BBX 9 11 1 0
BITMAP
7F00
7F00
6000
7E00
7F00
6380
0180
0180
E380
7F00
3E00
ENDCHAR
STARTCHAR CENA36
ENCODING 54
SWIDTH 660 0
DWIDTH 11 0
BBX 9 11 1 0
BITMAP
0E00
1C00
3800
7000
7E00
FF00
C380
C180
E380
7F00
3E00
ENDCHAR
STARTCHAR CENA37
ENCODING 55
SWIDTH 660 0
DWIDTH 11 0
BBX 10 11 1 0
BITMAP
FFC0
FF80
0300
0700
0600
0C00
1C00
1800
3800
3000
3000
ENDCHAR
STARTCHAR CENA38
ENCODING 56
SWIDTH 660 0
DWIDTH 11 0
BBX 9 11 1 0
BITMAP
3E00
7F00
6300
7300
3E00
7F00
E380
C180
E380
7F80
3E00
ENDCHAR
STARTCHAR CENA39
ENCODING 57
SWIDTH 660 0
DWIDTH 11 0
BBX 9 11 1 0
BITMAP
3E00
7F00
E380
C180
E180
7F80
3F00
0700
0E00
1C00
3800
ENDCHAR
STARTCHAR CENA3A
ENCODING 58
SWIDTH 480 0
DWIDTH 8 0
BBX 3 9 2 0
BITMAP
40
E0
E0
40
00
40
E0
E0
40
ENDCHAR
STARTCHAR CENA3B
ENCODING 59
SWIDTH 420 0
DWIDTH 7 0
BBX 4 12 1 -3
BITMAP
20
70
70
20
00
00
20
70
70
60
C0
80
ENDCHAR
STARTCHAR GCID3C
ENCODING 60
SWIDTH 660 0
DWIDTH 11 0
BBX 7 9 2 0
BITMAP
0E
1C
38
70
E0
70
38
1C
0E
ENDCHAR
STARTCHAR GCID3D
ENCODING 61
SWIDTH 660 0
DWIDTH 11 0
BBX 7 5 2 2
BITMAP
FE
FE
00
FE
FE
ENDCHAR
STARTCHAR GCID3C
ENCODING 62
SWIDTH 660 0
DWIDTH 11 0
BBX 7 9 2 0
BITMAP
E0
70
38
1C
0E
1C
38
70
E0
ENDCHAR
STARTCHAR GCID3F
ENCODING 63
SWIDTH 540 0
DWIDTH 9 0
BBX 7 11 2 0
BITMAP
7C
FE
C6
06
0C
18
30
30
00
30
30
ENDCHAR
STARTCHAR GCID40
ENCODING 64
SWIDTH 960 0
DWIDTH 16 0
BBX 14 14 1 -2
BITMAP
07C0
1830
2008
4008
47C4
8CC4
98C4
98C4
98C4
99C8
4F70
4000
3030
0FC0
ENDCHAR
STARTCHAR CENA41
ENCODING 65
SWIDTH 600 0
DWIDTH 10 0
BBX 9 11 0 0
BITMAP
1C00
1C00
1E00
3600
3600
3700
6300
7F00
7F80
C180
C180
ENDCHAR
STARTCHAR CENA42
ENCODING 66
SWIDTH 600 0
DWIDTH 10 0
BBX 8 11 1 0
BITMAP
FC
FE
C6
C6
FC
FE
C7
C3
C7
FE
FC
ENDCHAR
STARTCHAR CENA43
ENCODING 67
SWIDTH 600 0
DWIDTH 10 0
BBX 8 11 1 0
BITMAP
3E
7F
E3
C0
C0
C0
C0
C0
E3
7F
3E
ENDCHAR
STARTCHAR CENA44
ENCODING 68
SWIDTH 600 0
DWIDTH 10 0
BBX 8 11 1 0
BITMAP
F8
FE
C6
C3
C3
C3
C3
C3
C6
FE
F8
ENDCHAR
STARTCHAR CENA45
ENCODING 69
SWIDTH 540 0
DWIDTH 9 0
BBX 7 11 1 0
BITMAP
FE
FE
C0
C0
FC
FC
C0
C0
C0
FE
FE
ENDCHAR
STARTCHAR CENA46
ENCODING 70
SWIDTH 540 0
DWIDTH 9 0
BBX 7 11 1 0
BITMAP
FE
FE
C0
C0
FC
FC
C0
C0
C0
C0
C0
ENDCHAR
STARTCHAR CENA47
ENCODING 71
SWIDTH 600 0
DWIDTH 10 0
BBX 8 11 1 0
BITMAP
3E
7F
E3
C0
C0
CF
CF
C3
E3
7F
3F
ENDCHAR
STARTCHAR CENA48
ENCODING 72
SWIDTH 660 0
DWIDTH 11 0
BBX 8 11 1 0
BITMAP
C3
C3
C3
C3
FF
FF
C3
C3
C3
C3
C3
ENDCHAR
STARTCHAR CENA49
ENCODING 73
SWIDTH 420 0
DWIDTH 7 0
BBX 2 11 2 0
BITMAP
C0
C0
C0
C0
C0
C0
C0
C0
C0
C0
C0
ENDCHAR
STARTCHAR CENA4A
ENCODING 74
SWIDTH 540 0
DWIDTH 9 0
BBX 7 11 0 0
BITMAP
06
06
06
06
06
06
C6
C6
EE
7C
38
ENDCHAR
STARTCHAR CENA4B
ENCODING 75
SWIDTH 600 0
DWIDTH 10 0
BBX 9 11 1 0
BITMAP
C700
CE00
DC00
F800
F000
F000
F800
DC00
CE00
C700
C380
ENDCHAR
STARTCHAR CENA4C
ENCODING 76
SWIDTH 480 0
DWIDTH 8 0
BBX 7 11 1 0
BITMAP
C0
C0
C0
C0
C0
C0
C0
C0
C0
FE
FE
ENDCHAR
STARTCHAR CENA4D
ENCODING 77
SWIDTH 660 0
DWIDTH 11 0
BBX 9 11 1 0
BITMAP
C180
C180
E380
E380
F780
F780
FF80
DD80
C980
C980
C180
ENDCHAR
STARTCHAR CENA4E
ENCODING 78
SWIDTH 660 0
DWIDTH 11 0
BBX 8 11 1 0
BITMAP
C3
E3
E3
F3
F3
DB
DB
CF
CF
C7
C3
ENDCHAR
STARTCHAR CENA4F
ENCODING 79
SWIDTH 600 0
DWIDTH 10 0
BBX 8 11 1 0
BITMAP
3C
7E
E7
C3
C3
C3
C3
C3
E7
7E
3C
ENDCHAR
STARTCHAR CENA50
ENCODING 80
SWIDTH 540 0
DWIDTH 9 0
BBX 7 11 1 0
BITMAP
F8
FC
CE
C6
C6
CE
FC
F8
C0
C0
C0
ENDCHAR
STARTCHAR CENA51
ENCODING 81
SWIDTH 660 0
DWIDTH 11 0
BBX 9 11 1 0
BITMAP
3C00
7E00
E700
C300
C300
DB00
FF00
EF00
E700
7F80
3D80
ENDCHAR
STARTCHAR CENA52
ENCODING 82
SWIDTH 600 0
DWIDTH 10 0
BBX 8 11 1 0
BITMAP
FC
FE
C6
C6
CE
FC
F8
DC
CE
C7
C3
ENDCHAR
STARTCHAR CENA53
ENCODING 83
SWIDTH 600 0
DWIDTH 10 0
BBX 8 11 1 0
BITMAP
7C
FE
C6
E0
78
3E
0F
03
C7
FE
7C
ENDCHAR
STARTCHAR CENA54
ENCODING 84
SWIDTH 540 0
DWIDTH 9 0
BBX 8 11 0 0
BITMAP
FF
FF
18
18
18
18
18
18
18
18
18
ENDCHAR
STARTCHAR CENA55
ENCODING 85
SWIDTH 660 0
DWIDTH 11 0
BBX 8 11 1 0
BITMAP
C3
C3
C3
C3
C3
C3
C3
C3
E7
7E
3C
ENDCHAR
STARTCHAR CENA56
ENCODING 86
SWIDTH 600 0
DWIDTH 10 0
BBX 8 11 1 0
BITMAP
C3
C3
C3
66
66
66
3C
3C
3C
18
18
ENDCHAR
STARTCHAR CENA57
ENCODING 87
SWIDTH 720 0
DWIDTH 12 0
BBX 11 11 1 0
BITMAP
C060
C060
C460
CE60
6EC0
6EC0
7FC0
7BC0
3180
3180
3180
ENDCHAR
STARTCHAR CENA58
ENCODING 88
SWIDTH 600 0
DWIDTH 10 0
BBX 8 11 1 0
BITMAP
C3
C3
66
76
3C
18
3C
7E
66
C3
C3
ENDCHAR
STARTCHAR CENA59
ENCODING 89
SWIDTH 540 0
DWIDTH 9 0
BBX 8 11 0 0
BITMAP
C3
C3
66
66
3C
3C
18
18
18
18
18
ENDCHAR
STARTCHAR CENA5A
ENCODING 90
SWIDTH 600 0
DWIDTH 10 0
BBX 8 11 1 0
BITMAP
FE
FE
0C
1C
18
30
70
60
E0
FF
FF
ENDCHAR
STARTCHAR GCID5B
ENCODING 91
SWIDTH 300 0
DWIDTH 5 0
BBX 3 15 2 -4
BITMAP
E0
C0
C0
C0
C0
C0
C0
C0
C0
C0
C0
C0
C0
C0
E0
ENDCHAR
STARTCHAR GCID5C
ENCODING 92
SWIDTH 480 0
DWIDTH 8 0
BBX 8 13 0 -2
BITMAP
C0
C0
60
60
30
30
18
18
0C
0C
06
06
03
ENDCHAR
STARTCHAR GCID5D
ENCODING 93
SWIDTH 300 0
DWIDTH 5 0
BBX 3 15 0 -4
BITMAP
E0
60
60
60
60
60
60
60
60
60
60
60
60
60
E0
ENDCHAR
STARTCHAR GCID5E
ENCODING 94
SWIDTH 960 0
DWIDTH 16 0
BBX 9 4 3 7
BITMAP
1C00
3600
6300
C180
ENDCHAR
STARTCHAR GCID5F
ENCODING 95
SWIDTH 480 0
DWIDTH 8 0
BBX 8 1 0 -4
BITMAP
FF
ENDCHAR
STARTCHAR GCID60
ENCODING 96
SWIDTH 480 0
DWIDTH 8 0
BBX 3 2 2 9
BITMAP
C0
60
ENDCHAR
STARTCHAR CENA61
ENCODING 97
SWIDTH 540 0
DWIDTH 9 0
BBX 7 9 1 0
BITMAP
76
FE
CE
C6
C6
C6
CE
FE
76
ENDCHAR
STARTCHAR CENA62
ENCODING 98
SWIDTH 540 0
DWIDTH 9 0
BBX 7 12 1 0
BITMAP
C0
C0
C0
DC
FE
E6
C6
C6
C6
E6
FE
DC
ENDCHAR
STARTCHAR CENA63
ENCODING 99
SWIDTH 540 0
DWIDTH 9 0
BBX 7 9 1 0
BITMAP
7C
FE
C6
C0
C0
C0
C6
FE
7C
ENDCHAR
STARTCHAR CENA64
ENCODING 100
SWIDTH 540 0
DWIDTH 9 0
BBX 7 12 1 0
BITMAP
06
06
06
76
FE
CE
C6
C6
C6
CE
FE
76
ENDCHAR
STARTCHAR CENA65
ENCODING 101
SWIDTH 540 0
DWIDTH 9 0
BBX 7 9 1 0
BITMAP
7C
FE
C6
CE
FC
F0
C0
FE
7C
ENDCHAR
STARTCHAR CENA66
ENCODING 102
SWIDTH 420 0
DWIDTH 7 0
BBX 6 12 1 0
BITMAP
3C
7C
60
F8
F8
60
60
60
60
60
60
60
ENDCHAR
STARTCHAR CENA67
ENCODING 103
SWIDTH 540 0
DWIDTH 9 0
BBX 7 13 1 -4
BITMAP
76
FE
CE
C6
C6
C6
CE
FE
76
06
C6
FE
7C
ENDCHAR
STARTCHAR CENA68
ENCODING 104
SWIDTH 540 0
DWIDTH 9 0
BBX 7 12 1 0
BITMAP
C0
C0
C0
DC
FE
E6
C6
C6
C6
C6
C6
C6
ENDCHAR
STARTCHAR CENA69
ENCODING 105
SWIDTH 360 0
DWIDTH 6 0
BBX 2 13 2 0
BITMAP
C0
C0
00
00
C0
C0
C0
C0
C0
C0
C0
C0
C0
ENDCHAR
STARTCHAR CENA6A
ENCODING 106
SWIDTH 300 0
DWIDTH 5 0
BBX 4 15 0 -3
BITMAP
30
30
00
30
30
30
30
30
30
30
30
30
30
F0
E0
ENDCHAR
STARTCHAR CENA6B
ENCODING 107
SWIDTH 540 0
DWIDTH 9 0
BBX 8 12 1 0
BITMAP
C0
C0
C0
C6
CE
DC
F0
F8
DC
CE
C7
C3
ENDCHAR
STARTCHAR CENA6C
ENCODING 108
SWIDTH 240 0
DWIDTH 4 0
BBX 2 12 1 0
BITMAP
C0
C0
C0
C0
C0
C0
C0
C0
C0
C0
C0
C0
ENDCHAR
STARTCHAR CENA6D
ENCODING 109
SWIDTH 840 0
DWIDTH 14 0
BBX 12 9 1 0
BITMAP
DCE0
FFF0
E730
C630
C630
C630
C630
C630
C630
ENDCHAR
STARTCHAR CENA6E
ENCODING 110
SWIDTH 540 0
DWIDTH 9 0
BBX 7 9 1 0
BITMAP
DC
FE
E6
C6
C6
C6
C6
C6
C6
ENDCHAR
STARTCHAR CENA6F
ENCODING 111
SWIDTH 540 0
DWIDTH 9 0
BBX 7 9 1 0
BITMAP
7C
FE
C6
C6
C6
C6
C6
FE
7C
ENDCHAR
STARTCHAR CENA70
ENCODING 112
SWIDTH 540 0
DWIDTH 9 0
BBX 7 12 1 -3
BITMAP
DC
FE
E6
C6
C6
C6
E6
FE
DC
C0
C0
C0
ENDCHAR
STARTCHAR CENA71
ENCODING 113
SWIDTH 540 0
DWIDTH 9 0
BBX 7 12 1 -3
BITMAP
76
FE
CE
C6
C6
C6
CE
FE
76
06
06
06
ENDCHAR
STARTCHAR CENA72
ENCODING 114
SWIDTH 420 0
DWIDTH 7 0
BBX 6 9 1 0
BITMAP
DC
FC
E0
C0
C0
C0
C0
C0
C0
ENDCHAR
STARTCHAR CENA73
ENCODING 115
SWIDTH 540 0
DWIDTH 9 0
BBX 7 9 1 0
BITMAP
7C
FE
C6
F0
7C
1E
C6
FE
7C
ENDCHAR
STARTCHAR CENA74
ENCODING 116
SWIDTH 360 0
DWIDTH 6 0
BBX 5 12 1 0
BITMAP
20
60
60
F8
F8
60
60
60
60
60
60
60
ENDCHAR
STARTCHAR CENA75
ENCODING 117
SWIDTH 540 0
DWIDTH 9 0
BBX 7 9 1 0
BITMAP
C6
C6
C6
C6
C6
C6
CE
FE
76
ENDCHAR
STARTCHAR CENA76
ENCODING 118
SWIDTH 480 0
DWIDTH 8 0
BBX 7 9 1 0
BITMAP
C6
C6
C6
6C
6C
7C
38
38
10
ENDCHAR
STARTCHAR CENA77
ENCODING 119
SWIDTH 720 0
DWIDTH 12 0
BBX 11 9 1 0
BITMAP
C060
C460
CC60
6EC0
6EC0
7BC0
3B80
3180
1100
ENDCHAR
STARTCHAR CENA78
ENCODING 120
SWIDTH 540 0
DWIDTH 9 0
BBX 7 9 1 0
BITMAP
C6
C6
6C
7C
38
7C
6C
C6
C6
ENDCHAR
STARTCHAR CENA79
ENCODING 121
SWIDTH 540 0
DWIDTH 9 0
BBX 8 12 1 -3
BITMAP
C3
C3
E3
63
76
36
3C
1C
18
38
70
60
ENDCHAR
STARTCHAR CENA7A
ENCODING 122
SWIDTH 540 0
DWIDTH 9 0
BBX 7 9 1 0
BITMAP
FE
FE
0C
1C
38
70
60
FE
FE
ENDCHAR
STARTCHAR GCID7B
ENCODING 123
SWIDTH 480 0
DWIDTH 8 0
BBX 6 15 1 -3
BITMAP
1C
30
30
30
30
30
30
C0
30
30
30
30
30
30
1C
ENDCHAR
STARTCHAR GCID7C
ENCODING 124
SWIDTH 480 0
DWIDTH 8 0
BBX 1 16 3 -4
BITMAP
80
80
80
80
80
80
80
80
80
80
80
80
80
80
80
80
ENDCHAR
STARTCHAR GCID7D
ENCODING 125
SWIDTH 480 0
DWIDTH 8 0
BBX 6 15 1 -3
BITMAP
E0
30
30
30
30
30
30
0C
30
30
30
30
30
30
E0
ENDCHAR
STARTCHAR GCID7E
ENCODING 126
SWIDTH 780 0
DWIDTH 13 0
BBX 9 2 1 4
BITMAP
7880
8700
ENDCHAR
STARTCHAR GCIDD1
ENCODING 147
SWIDTH 960 0
DWIDTH 16 0
BBX 16 1 0 3
BITMAP
FFFF
ENDCHAR
STARTCHAR GCIDD2
ENCODING 148
SWIDTH 420 0
DWIDTH 7 0
BBX 6 5 1 6
BITMAP
24
6C
48
D8
D8
ENDCHAR
STARTCHAR GCIDD3
ENCODING 149
SWIDTH 420 0
DWIDTH 7 0
BBX 6 5 1 6
BITMAP
6C
6C
48
D8
90
ENDCHAR
STARTCHAR GCIDD4
ENCODING 150
SWIDTH 300 0
DWIDTH 5 0
BBX 3 5 1 6
BITMAP
20
60
40
C0
C0
ENDCHAR
STARTCHAR GCIDD5
ENCODING 151
SWIDTH 300 0
DWIDTH 5 0
BBX 3 5 1 6
BITMAP
60
60
40
C0
80
ENDCHAR
STARTCHAR GCIDC7
ENCODING 171
SWIDTH 420 0
DWIDTH 7 0
BBX 6 6 1 0
BITMAP
24
48
D8
D8
48
24
ENDCHAR
STARTCHAR GCIDC8
ENCODING 187
SWIDTH 420 0
DWIDTH 7 0
BBX 6 6 1 0
BITMAP
90
48
6C
6C
48
90
ENDCHAR
STARTCHAR CENAC0
ENCODING 192
SWIDTH 600 0
DWIDTH 10 0
BBX 9 15 0 0
BITMAP
1800
0C00
0000
0000
1C00
1C00
1E00
3600
3600
3700
6300
7F00
7F80
C180
C180
ENDCHAR
STARTCHAR CENAC2
ENCODING 194
SWIDTH 600 0
DWIDTH 10 0
BBX 9 15 0 0
BITMAP
1C00
3600
0000
0000
1C00
1C00
1E00
3600
3600
3700
6300
7F00
7F80
C180
C180
ENDCHAR
STARTCHAR CENAC7
ENCODING 199
SWIDTH 660 0
DWIDTH 11 0
BBX 8 14 1 -3
BITMAP
3C
7E
E7
C0
C0
C0
C0
C0
E7
7E
3C
18
78
70
ENDCHAR
STARTCHAR CENAC8
ENCODING 200
SWIDTH 540 0
DWIDTH 9 0
BBX 7 15 1 0
BITMAP
30
18
00
00
FE
FE
C0
C0
FC
FC
C0
C0
C0
FE
FE
ENDCHAR
STARTCHAR CENAC9
ENCODING 201
SWIDTH 540 0
DWIDTH 9 0
BBX 7 15 1 0
BITMAP
18
30
00
00
FE
FE
C0
C0
FC
FC
C0
C0
C0
FE
FE
ENDCHAR
STARTCHAR CENACA
ENCODING 202
SWIDTH 540 0
DWIDTH 9 0
BBX 7 15 1 0
BITMAP
38
6C
00
00
FE
FE
C0
C0
FC
FC
C0
C0
C0
FE
FE
ENDCHAR
STARTCHAR CENACB
ENCODING 203
SWIDTH 540 0
DWIDTH 9 0
BBX 7 15 1 0
BITMAP
6C
6C
00
00
FE
FE
C0
C0
FC
FC
C0
C0
C0
FE
FE
ENDCHAR
STARTCHAR CENACE
ENCODING 206
SWIDTH 420 0
DWIDTH 7 0
BBX 5 15 1 0
BITMAP
70
D8
00
00
60
60
60
60
60
60
60
60
60
60
60
ENDCHAR
STARTCHAR CENACF
ENCODING 207
SWIDTH 420 0
DWIDTH 7 0
BBX 5 15 1 0
BITMAP
D8
D8
00
00
60
60
60
60
60
60
60
60
60
60
60
ENDCHAR
STARTCHAR CENAD4
ENCODING 212
SWIDTH 660 0
DWIDTH 11 0
BBX 8 15 1 0
BITMAP
1C
36
00
00
3C
7E
E7
C3
C3
C3
C3
C3
E7
7E
3C
ENDCHAR
STARTCHAR CENAD9
ENCODING 217
SWIDTH 660 0
DWIDTH 11 0
BBX 8 15 1 0
BITMAP
18
0C
00
00
C3
C3
C3
C3
C3
C3
C3
C3
E7
7E
3C
ENDCHAR
STARTCHAR CENADB
ENCODING 219
SWIDTH 660 0
DWIDTH 11 0
BBX 8 15 1 0
BITMAP
1C
36
00
00
C3
C3
C3
C3
C3
C3
C3
C3
E7
7E
3C
ENDCHAR
STARTCHAR CENADC
ENCODING 220
SWIDTH 660 0
DWIDTH 11 0
BBX 8 15 1 0
BITMAP
36
36
00
00
C3
C3
C3
C3
C3
C3
C3
C3
E7
7E
3C
ENDCHAR
STARTCHAR CENAE0
ENCODING 224
SWIDTH 540 0
DWIDTH 9 0
BBX 7 13 1 0
BITMAP
30
18
00
00
76
FE
CE
C6
C6
C6
CE
FE
76
ENDCHAR
STARTCHAR CENAE2
ENCODING 226
SWIDTH 540 0
DWIDTH 9 0
BBX 7 13 1 0
BITMAP
38
6C
00
00
76
FE
CE
C6
C6
C6
CE
FE
76
ENDCHAR
STARTCHAR CENAE7
ENCODING 231
SWIDTH 540 0
DWIDTH 9 0
BBX 7 12 1 -3
BITMAP
7C
FE
C6
C0
C0
C0
C6
FE
7C
18
78
70
ENDCHAR
STARTCHAR CENAE8
ENCODING 232
SWIDTH 540 0
DWIDTH 9 0
BBX 7 13 1 0
BITMAP
30
18
00
00
7C
FE
C6
CE
FC
F0
C0
FE
7C
ENDCHAR
STARTCHAR CENAE9
ENCODING 233
SWIDTH 540 0
DWIDTH 9 0
BBX 7 13 1 0
BITMAP
18
30
00
00
7C
FE
C6
CE
FC
F0
C0
FE
7C
ENDCHAR
STARTCHAR CENAEA
ENCODING 234
SWIDTH 540 0
DWIDTH 9 0
BBX 7 13 1 0
BITMAP
38
6C
00
00
7C
FE
C6
CE
FC
F0
C0
FE
7C
ENDCHAR
STARTCHAR CENAEB
ENCODING 235
SWIDTH 540 0
DWIDTH 9 0
BBX 7 13 1 0
BITMAP
6C
6C
00
00
7C
FE
C6
CE
FC
F0
C0
FE
7C
ENDCHAR
STARTCHAR CENAEE
ENCODING 238
SWIDTH 360 0
DWIDTH 6 0
BBX 5 13 2 0
BITMAP
70
D8
00
00
60
60
60
60
60
60
60
60
60
ENDCHAR
STARTCHAR CENAEF
ENCODING 239
SWIDTH 360 0
DWIDTH 6 0
BBX 5 13 2 0
BITMAP
D8
D8
00
00
60
60
60
60
60
60
60
60
60
ENDCHAR
STARTCHAR CENAF0
ENCODING 240
SWIDTH 360 0
DWIDTH 6 0
BBX 5 13 2 0
BITMAP
68
B0
00
00
60
60
60
60
60
60
60
60
60
ENDCHAR
STARTCHAR CENAF1
ENCODING 241
SWIDTH 540 0
DWIDTH 9 0
BBX 7 12 1 0
BITMAP
1A
2C
00
00
DC
FE
E6
C6
C6
C6
C6
C6
ENDCHAR
STARTCHAR CENAF2
ENCODING 242
SWIDTH 540 0
DWIDTH 9 0
BBX 7 13 1 0
BITMAP
30
18
00
00
7C
FE
C6
C6
C6
C6
C6
FE
7C
ENDCHAR
STARTCHAR CENAF3
ENCODING 243
SWIDTH 540 0
DWIDTH 9 0
BBX 7 13 1 0
BITMAP
18
30
00
00
7C
FE
C6
C6
C6
C6
C6
FE
7C
ENDCHAR
STARTCHAR CENAF4
ENCODING 244
SWIDTH 540 0
DWIDTH 9 0
BBX 7 13 1 0
BITMAP
38
6C
00
00
7C
FE
C6
C6
C6
C6
C6
FE
7C
ENDCHAR
STARTCHAR CENAF5
ENCODING 245
SWIDTH 540 0
DWIDTH 9 0
BBX 7 13 1 0
BITMAP
34
58
00
00
7C
FE
C6
C6
C6
C6
C6
FE
7C
ENDCHAR
STARTCHAR CENAF6
ENCODING 246
SWIDTH 540 0
DWIDTH 9 0
BBX 7 13 1 0
BITMAP
6C
6C
00
00
7C
FE
C6
C6
C6
C6
C6
FE
7C
ENDCHAR
STARTCHAR CENAF7
ENCODING 247
SWIDTH 780 0
DWIDTH 13 0
BBX 10 8 2 1
BITMAP
0C00
0C00
0000
FFC0
FFC0
0000
0C00
0C00
ENDCHAR
STARTCHAR CENAF8
ENCODING 248
SWIDTH 540 0
DWIDTH 9 0
BBX 9 9 1 0
BITMAP
3E80
7F80
6300
6F00
6B00
7B00
6300
FF00
BE00
ENDCHAR
STARTCHAR CENAF9
ENCODING 249
SWIDTH 540 0
DWIDTH 9 0
BBX 7 13 1 0
BITMAP
30
18
00
00
C6
C6
C6
C6
C6
C6
CE
FE
76
ENDCHAR
STARTCHAR CENAFA
ENCODING 250
SWIDTH 540 0
DWIDTH 9 0
BBX 7 13 1 0
BITMAP
18
30
00
00
C6
C6
C6
C6
C6
C6
CE
FE
76
ENDCHAR
STARTCHAR CENAFB
ENCODING 251
SWIDTH 540 0
DWIDTH 9 0
BBX 7 13 1 0
BITMAP
38
6C
00
00
C6
C6
C6
C6
C6
C6
CE
FE
76
ENDCHAR
STARTCHAR CENAFC
ENCODING 252
SWIDTH 540 0
DWIDTH 9 0
BBX 7 13 1 0
BITMAP
6C
6C
00
00
C6
C6
C6
C6
C6
C6
CE
FE
76
ENDCHAR
STARTCHAR CENAFF
ENCODING 255
SWIDTH 540 0
DWIDTH 9 0
BBX 8 16 1 -3
BITMAP
36
36
00
00
C3
C3
E3
63
76
36
3C
1C
18
38
60
60
ENDCHAR
ENDFONT
